<?xml version="1.0" encoding="UTF-8" ?>
<svg version="1.1" width="16" height="16" xmlns="http://www.w3.org/2000/svg" shape-rendering="crispEdges">
<rect x="3" y="1" width="5" height="2" fill="#2E3037" />
<rect x="8" y="1" width="6" height="4" fill="#EBE5CE" />
<rect x="2" y="2" width="1" height="6" fill="#2E3037" />
<rect x="14" y="2" width="1" height="6" fill="#EBE5CE" />
<rect x="1" y="3" width="1" height="5" fill="#2E3037" />
<rect x="3" y="3" width="2" height="5" fill="#2E3037" />
<rect x="5" y="3" width="2" height="3" fill="#EBE5CE" />
<rect x="7" y="3" width="1" height="1" fill="#2E3037" />
<rect x="7" y="4" width="1" height="2" fill="#EBE5CE" />
<rect x="8" y="5" width="2" height="3" fill="#EBE5CE" />
<rect x="10" y="5" width="3" height="2" fill="#2E3037" />
<rect x="13" y="5" width="1" height="3" fill="#EBE5CE" />
<rect x="5" y="6" width="3" height="2" fill="#2E3037" />
<rect x="10" y="7" width="1" height="1" fill="#EBE5CE" />
<rect x="11" y="7" width="2" height="8" fill="#2E3037" />
<rect x="1" y="8" width="7" height="6" fill="#EBE5CE" />
<rect x="8" y="8" width="3" height="2" fill="#2E3037" />
<rect x="13" y="8" width="2" height="6" fill="#2E3037" />
<rect x="8" y="10" width="1" height="1" fill="#2E3037" />
<rect x="9" y="10" width="2" height="3" fill="#EBE5CE" />
<rect x="8" y="11" width="1" height="2" fill="#EBE5CE" />
<rect x="8" y="13" width="3" height="2" fill="#2E3037" />
<rect x="2" y="14" width="6" height="1" fill="#EBE5CE" />
<rect x="13" y="14" width="1" height="1" fill="#2E3037" />
</svg>